<?xml version="1.0" encoding="UTF-8"?>
<svg width="40px" height="40px" viewBox="0 0 40 40" version="1.1" xmlns="http://www.w3.org/2000/svg" xmlns:xlink="http://www.w3.org/1999/xlink">
    <!-- Generator: Sketch 59.1 (86144) - https://sketch.com -->
    <title>Icon/Calendar</title>
    <desc>Created with Sketch.</desc>
    <g id="6_Newsroom" stroke="none" stroke-width="1" fill="none" fill-rule="evenodd">
        <g id="Newsroom-Events" transform="translate(-360.000000, -785.000000)" fill="#007CAD" fill-rule="nonzero">
            <g id="Icon/Calendar-Upcoiming" transform="translate(360.000000, 785.000000)">
                <path d="M7.25585942,0 L7.25585942,2.93758315 L11.0009766,2.93758315 L11.0009766,0 L12.6676432,0 L12.6676432,2.93758315 L27.3323568,2.93758315 L27.3323568,0 L28.9990235,0 L28.9990235,2.93758315 L32.7441407,2.93758315 L32.7441407,0 L34.4108073,0 L34.4108073,2.93758315 L37.6680502,2.93758315 C38.9538574,2.93758315 40,3.93949472 40,5.17121013 L40,5.17121013 L40,37.7667886 C40,38.9980884 38.9538574,40 37.6680501,40 L37.6680501,40 L2.33194983,40 C1.04614258,40 0,38.9980884 0,37.7667886 L0,37.7667886 L0,5.17121013 C0,3.93949472 1.04614258,2.93758315 2.33194983,2.93758315 L2.33194983,2.93758315 L5.58919275,2.93758315 L5.58919275,0 L7.25585942,0 Z M38.3333333,11.8874667 L1.66666667,11.8874667 L1.66666667,37.7667886 C1.66666667,38.0547706 1.97143558,38.2978723 2.33194983,38.2978723 L2.33194983,38.2978723 L37.6680502,38.2978723 C38.0285644,38.2978723 38.3333333,38.0547706 38.3333333,37.7667886 L38.3333333,37.7667886 L38.3333333,11.8874667 Z M7.38461538,33.125 L7.38461538,35 L4.92307692,35 L4.92307692,33.125 L7.38461538,33.125 Z M14.1538462,33.125 L14.1538462,35 L11.6923077,35 L11.6923077,33.125 L14.1538462,33.125 Z M7.38461538,26.875 L7.38461538,28.75 L4.92307692,28.75 L4.92307692,26.875 L7.38461538,26.875 Z M14.1538462,26.875 L14.1538462,28.75 L11.6923077,28.75 L11.6923077,26.875 L14.1538462,26.875 Z M21.5384615,26.875 L21.5384615,28.75 L19.0769231,28.75 L19.0769231,26.875 L21.5384615,26.875 Z M28.3076923,26.875 L28.3076923,28.75 L25.8461538,28.75 L25.8461538,26.875 L28.3076923,26.875 Z M35.0769231,26.875 L35.0769231,28.75 L32.6153846,28.75 L32.6153846,26.875 L35.0769231,26.875 Z M7.38461538,21.25 L7.38461538,23.125 L4.92307692,23.125 L4.92307692,21.25 L7.38461538,21.25 Z M14.1538462,21.25 L14.1538462,23.125 L11.6923077,23.125 L11.6923077,21.25 L14.1538462,21.25 Z M21.5384615,21.25 L21.5384615,23.125 L19.0769231,23.125 L19.0769231,21.25 L21.5384615,21.25 Z M28.3076923,21.25 L28.3076923,23.125 L25.8461538,23.125 L25.8461538,21.25 L28.3076923,21.25 Z M35.0769231,21.25 L35.0769231,23.125 L32.6153846,23.125 L32.6153846,21.25 L35.0769231,21.25 Z M21.5384615,15.625 L21.5384615,17.5 L19.0769231,17.5 L19.0769231,15.625 L21.5384615,15.625 Z M28.3076923,15.625 L28.3076923,17.5 L25.8461538,17.5 L25.8461538,15.625 L28.3076923,15.625 Z M35.0769231,15.625 L35.0769231,17.5 L32.6153846,17.5 L32.6153846,15.625 L35.0769231,15.625 Z M5.58919267,4.63971072 L2.33194983,4.63971072 C1.97143558,4.63971072 1.66666667,4.883228 1.66666667,5.17121004 L1.66666667,5.17121004 L1.66666667,10.1853391 L38.3333333,10.1853391 L38.3333333,5.17121013 C38.3333333,4.88322809 38.0285644,4.63971072 37.6680501,4.63971072 L37.6680501,4.63971072 L34.4108072,4.63971072 L34.4108072,7.57729387 L32.7441406,7.57729387 L32.7441406,4.63971072 L28.9990234,4.63971072 L28.9990234,7.57729387 L27.3323567,7.57729387 L27.3323567,4.63971072 L12.6676432,4.63971072 L12.6676432,7.57729387 L11.0009765,7.57729387 L11.0009765,4.63971072 L7.25585933,4.63971072 L7.25585933,7.57729387 L5.58919267,7.57729387 L5.58919267,4.63971072 Z" id="Combined-Shape"></path>
            </g>
        </g>
    </g>
</svg>