<?xml version="1.0" encoding="UTF-8"?>
<svg width="40px" height="40px" viewBox="0 0 40 40" version="1.1" xmlns="http://www.w3.org/2000/svg" xmlns:xlink="http://www.w3.org/1999/xlink">
    <!-- Generator: Sketch 59.1 (86144) - https://sketch.com -->
    <title>Icon/Calendar-Previous</title>
    <desc>Created with Sketch.</desc>
    <g id="6_Newsroom" stroke="none" stroke-width="1" fill="none" fill-rule="evenodd">
        <g id="Newsroom-Events" transform="translate(-360.000000, -1617.000000)" fill="#007CAD" fill-rule="nonzero">
            <g id="Icon/Calendar-Previous" transform="translate(360.000000, 1617.000000)">
                <path d="M7.25585942,0 L7.25585942,2.93758315 L11.0009766,2.93758315 L11.0009766,0 L12.6676432,0 L12.6676432,2.93758315 L27.3323568,2.93758315 L27.3323568,0 L28.9990235,0 L28.9990235,2.93758315 L32.7441407,2.93758315 L32.7441407,0 L34.4108073,0 L34.4108073,2.93758315 L37.6680502,2.93758315 C38.9538574,2.93758315 40,3.93949472 40,5.17121013 L40,5.17121013 L40,37.7667886 C40,38.9980884 38.9538574,40 37.6680501,40 L37.6680501,40 L2.33194983,40 C1.04614258,40 0,38.9980884 0,37.7667886 L0,37.7667886 L0,5.17121013 C0,3.93949472 1.04614258,2.93758315 2.33194983,2.93758315 L2.33194983,2.93758315 L5.58919275,2.93758315 L5.58919275,0 L7.25585942,0 Z M38.3333333,11.8874667 L1.66666667,11.8874667 L1.66666667,37.7667886 C1.66666667,38.0547706 1.97143558,38.2978723 2.33194983,38.2978723 L2.33194983,38.2978723 L37.6680502,38.2978723 C38.0285644,38.2978723 38.3333333,38.0547706 38.3333333,37.7667886 L38.3333333,37.7667886 L38.3333333,11.8874667 Z M20,16.7045455 C20.517767,16.7045455 20.9375,17.1242785 20.9375,17.6420455 C20.9375,18.1598124 20.517767,18.5795455 20,18.5795455 C16.2688266,18.5795455 13.2451923,21.5945899 13.2451923,25.3125 C13.2451923,29.0304101 16.2688266,32.0454545 20,32.0454545 C23.7311734,32.0454545 26.7548077,29.0304101 26.7548077,25.3125 C26.7548077,24.794733 27.1745407,24.375 27.6923077,24.375 C28.2100746,24.375 28.6298077,24.794733 28.6298077,25.3125 C28.6298077,30.06714 24.7655151,33.9204545 20,33.9204545 C15.2344849,33.9204545 11.3701923,30.06714 11.3701923,25.3125 C11.3701923,20.55786 15.2344849,16.7045455 20,16.7045455 Z M26.9729514,17.0408527 C27.304981,16.6435632 27.896211,16.5906595 28.2935005,16.9226892 C28.69079,17.2547188 28.7436936,17.8459487 28.411664,18.2432382 L28.411664,18.2432382 L21.187068,26.8878173 C20.6055275,27.5837043 19.5805452,27.7032447 18.8539089,27.1601421 L18.8539089,27.1601421 L16.3616012,25.2962217 C15.946964,24.9861272 15.8622153,24.3986161 16.1723098,23.9839788 C16.4824043,23.5693416 17.0699154,23.4845929 17.4845526,23.7946874 L17.4845526,23.7946874 L19.8500391,25.5637622 Z M5.58919267,4.63971072 L2.33194983,4.63971072 C1.97143558,4.63971072 1.66666667,4.883228 1.66666667,5.17121004 L1.66666667,5.17121004 L1.66666667,10.1853391 L38.3333333,10.1853391 L38.3333333,5.17121013 C38.3333333,4.88322809 38.0285644,4.63971072 37.6680501,4.63971072 L37.6680501,4.63971072 L34.4108072,4.63971072 L34.4108072,7.57729387 L32.7441406,7.57729387 L32.7441406,4.63971072 L28.9990234,4.63971072 L28.9990234,7.57729387 L27.3323567,7.57729387 L27.3323567,4.63971072 L12.6676432,4.63971072 L12.6676432,7.57729387 L11.0009765,7.57729387 L11.0009765,4.63971072 L7.25585933,4.63971072 L7.25585933,7.57729387 L5.58919267,7.57729387 L5.58919267,4.63971072 Z" id="Combined-Shape"></path>
            </g>
        </g>
    </g>
</svg>