<?xml version="1.0" encoding="UTF-8"?>
<svg width="16px" height="16px" viewBox="0 0 16 16" version="1.1" xmlns="http://www.w3.org/2000/svg" xmlns:xlink="http://www.w3.org/1999/xlink">
    <!-- Generator: Sketch 59.1 (86144) - https://sketch.com -->
    <title>Element/TextLink-Text+Icon-M</title>
    <desc>Created with Sketch.</desc>
    <g id="Page-1" stroke="none" stroke-width="1" fill="none" fill-rule="evenodd">
        <g id="Research_Article" transform="translate(-794.000000, -1169.000000)" fill="#007CAD">
            <g id="Group" transform="translate(523.000000, 1157.000000)">
                <g id="Element/TextLink-Text+Icon-M" transform="translate(269.000000, 9.000000)">
                    <g id="Icon/Blank-2">
                        <g id="Icon/Download">
                            <path d="M16.6666667,11.0416667 C16.9804648,11.0416667 17.2402498,11.2729245 17.2848901,11.5743087 L17.2916667,11.6666667 L17.2916667,17.5 C17.2916667,17.8137982 17.0604088,18.0735831 16.7590246,18.1182234 L16.6666667,18.125 L3.33333333,18.125 C3.01953518,18.125 2.7597502,17.8937421 2.71510994,17.5923579 L2.70833333,17.5 L2.70833333,11.6666667 C2.70833333,11.3214887 2.98815536,11.0416667 3.33333333,11.0416667 C3.64713149,11.0416667 3.90691647,11.2729245 3.95155673,11.5743087 L3.95833333,11.6666667 L3.95833333,16.875 L16.0416667,16.875 L16.0416667,11.6666667 C16.0416667,11.3214887 16.3214887,11.0416667 16.6666667,11.0416667 Z M10,3.33333333 C10.345178,3.33333333 10.625,3.61315536 10.625,3.95833333 L10.6243333,13.4923333 L12.8911986,11.224918 C13.1351697,10.9807337 13.5308978,10.9805609 13.775082,11.224532 C13.9921347,11.4413952 14.0163882,11.7781651 13.8477495,12.0218239 L13.775468,12.1084154 L10.4421347,15.4446612 C10.2251376,15.6618479 9.88811746,15.6859798 9.64444856,15.5170568 L9.55786531,15.4446612 L6.22453198,12.1084154 C5.98056091,11.8642311 5.98073372,11.4685031 6.22491796,11.224532 C6.44197062,11.0076688 6.77876162,10.9837094 7.02227308,11.1525609 L7.10880135,11.224918 L9.37433333,13.4923333 L9.375,3.95833333 C9.375,3.61315536 9.65482203,3.33333333 10,3.33333333 Z" id="Combined-Shape"></path>
                        </g>
                    </g>
                </g>
            </g>
        </g>
    </g>
</svg>