<?xml version="1.0" encoding="UTF-8"?>
<svg width="24px" height="24px" viewBox="0 0 24 24" version="1.1" xmlns="http://www.w3.org/2000/svg" xmlns:xlink="http://www.w3.org/1999/xlink">
    <!-- Generator: Sketch 57.1 (83088) - https://sketch.com -->
    <title>Icon/Sns/LinkedIn</title>
    <desc>Created with Sketch.</desc>
    <g id="Page-1" stroke="none" stroke-width="1" fill="none" fill-rule="evenodd">
        <g id="News_Article_SP" transform="translate(-95.000000, -289.000000)">
            <g id="Group-4" transform="translate(15.000000, 289.000000)">
                <g id="Icon/Sns/LinkedIn" transform="translate(80.000000, 0.000000)">
                    <rect id="Rectangle" fill="#FFFFFF" x="0" y="0" width="24" height="24" rx="2"></rect>
                    <path d="M22,0 L2,0 C0.8954305,2.02906125e-16 -2.03972218e-13,0.8954305 -2.03836947e-13,2 L-2.03836947e-13,22 C-2.03701677e-13,23.1045695 0.8954305,24 2,24 L22,24 C23.1045695,24 24,23.1045695 24,22 L24,2 C24,0.8954305 23.1045695,-2.02906125e-16 22,0 Z M8,19 L5,19 L5,8 L8,8 L8,19 Z M6.5,6.732 C5.534,6.732 4.75,5.942 4.75,4.968 C4.75,3.994 5.534,3.204 6.5,3.204 C7.466,3.204 8.25,3.994 8.25,4.968 C8.25,5.942 7.467,6.732 6.5,6.732 Z M20,19 L17,19 L17,13.396 C17,10.028 13,10.283 13,13.396 L13,19 L10,19 L10,8 L13,8 L13,9.765 C14.396,7.179 20,6.988 20,12.241 L20,19 Z" id="Shape" fill="#007BB5"></path>
                </g>
            </g>
        </g>
    </g>
</svg>