<?xml version="1.0" encoding="UTF-8"?>
<svg width="24px" height="24px" viewBox="0 0 24 24" version="1.1" xmlns="http://www.w3.org/2000/svg" xmlns:xlink="http://www.w3.org/1999/xlink">
    <!-- Generator: Sketch 56.3 (81716) - https://sketch.com -->
    <title>Icon/Blank Copy</title>
    <desc>Created with Sketch.</desc>
    <g id="Icon/Blank-Copy" stroke="none" stroke-width="1" fill="none" fill-rule="evenodd">
        <path d="M20,4.5 L20,10.5 C20,10.7761424 19.7761424,11 19.5,11 C19.2238576,11 19,10.7761424 19,10.5 L19,5.70710678 L7.85355339,16.8535534 C7.65829124,17.0488155 7.34170876,17.0488155 7.14644661,16.8535534 C6.95118446,16.6582912 6.95118446,16.3417088 7.14644661,16.1464466 L18.2928932,5 L13.5,5 C13.2238576,5 13,4.77614237 13,4.5 C13,4.22385763 13.2238576,4 13.5,4 L16.5,4 L20,4 L20,4.5 Z M17,19.5 L17,20 L4,20 L4,7 L10.5,7 C10.7761424,7 11,7.22385763 11,7.5 C11,7.77614237 10.7761424,8 10.5,8 L5,8 L5,19 L16,19 L16,13.531 C16,13.2548576 16.2238576,13.031 16.5,13.031 C16.7761424,13.031 17,13.2548576 17,13.531 L17,19.5 Z" id="Combined-Shape" fill="#007CAD"></path>
    </g>
</svg>