<?xml version="1.0" encoding="UTF-8"?>
<svg width="16px" height="16px" viewBox="0 0 16 16" version="1.1" xmlns="http://www.w3.org/2000/svg" xmlns:xlink="http://www.w3.org/1999/xlink">
    <!-- Generator: Sketch 56.3 (81716) - https://sketch.com -->
    <title>Icon/Search</title>
    <desc>Created with Sketch.</desc>
    <g id="Symbols" stroke="none" stroke-width="1" fill="none" fill-rule="evenodd" fill-opacity="0.5">
        <g id="Bars/Header-SP_Scroll" transform="translate(-343.000000, -17.000000)" fill="#3C4650">
            <g id="Icon/Search" transform="translate(343.000000, 17.000000)">
                <path d="M11.1622062,10.0159648 L15.3333333,14.187092 L14.187092,15.3333333 L10.0159648,11.1622062 C9.03855487,11.9003496 7.82158384,12.3380828 6.50237474,12.3380828 C3.27940217,12.3380828 0.666666667,9.72534732 0.666666667,6.50237474 C0.666666667,3.27940217 3.27940217,0.666666667 6.50237474,0.666666667 C9.72534732,0.666666667 12.3380828,3.27940217 12.3380828,6.50237474 C12.3380828,7.82158384 11.9003496,9.03855487 11.1622062,10.0159648 Z M6.50237474,10.7170528 C8.83007716,10.7170528 10.7170528,8.83007716 10.7170528,6.50237474 C10.7170528,4.17467233 8.83007716,2.28769669 6.50237474,2.28769669 C4.17467233,2.28769669 2.28769669,4.17467233 2.28769669,6.50237474 C2.28769669,8.83007716 4.17467233,10.7170528 6.50237474,10.7170528 Z" id="Combined-Shape"></path>
            </g>
        </g>
    </g>
</svg>