<?xml version="1.0" encoding="UTF-8"?>
<svg width="14px" height="14px" viewBox="0 0 14 14" version="1.1" xmlns="http://www.w3.org/2000/svg" xmlns:xlink="http://www.w3.org/1999/xlink">
    <!-- Generator: Sketch 59.1 (86144) - https://sketch.com -->
    <title>Icon/Search</title>
    <desc>Created with Sketch.</desc>
    <g id="6_Newsroom" stroke="none" stroke-width="1" fill="none" fill-rule="evenodd">
        <g id="Newsroom-News" transform="translate(-1545.000000, -215.000000)" fill="#FFFFFF">
            <g id="Group-4" transform="translate(0.000000, 148.000000)">
                <g id="Group" transform="translate(1169.000000, 66.000000)">
                    <g id="Icon/Search" transform="translate(376.000000, 1.000000)">
                        <path d="M5.6895779,0.583333333 C8.5096789,0.583333333 10.7958225,2.8694769 10.7958225,5.6895779 C10.7958225,6.84388586 10.4128059,7.90873552 9.76693039,8.76396923 L13.0631133,12.0601521 C13.2583754,12.2554143 13.2583754,12.5719968 13.0631133,12.7672589 L12.7672589,13.0631133 C12.5719968,13.2583754 12.2554143,13.2583754 12.0601521,13.0631133 L8.76396923,9.76693039 C7.90873552,10.4128059 6.84388586,10.7958225 5.6895779,10.7958225 C2.8694769,10.7958225 0.583333333,8.5096789 0.583333333,5.6895779 C0.583333333,2.8694769 2.8694769,0.583333333 5.6895779,0.583333333 Z M5.6895779,2.0017346 C3.65283829,2.0017346 2.0017346,3.65283829 2.0017346,5.6895779 C2.0017346,7.72631751 3.65283829,9.3774212 5.6895779,9.3774212 C7.72631751,9.3774212 9.3774212,7.72631751 9.3774212,5.6895779 C9.3774212,3.65283829 7.72631751,2.0017346 5.6895779,2.0017346 Z" id="Combined-Shape"></path>
                    </g>
                </g>
            </g>
        </g>
    </g>
</svg>