<?xml version="1.0" encoding="UTF-8"?>
<svg width="24px" height="24px" viewBox="0 0 24 24" version="1.1" xmlns="http://www.w3.org/2000/svg" xmlns:xlink="http://www.w3.org/1999/xlink">
    <!-- Generator: Sketch 57.1 (83088) - https://sketch.com -->
    <title>Icon/Sns/Twitter</title>
    <desc>Created with Sketch.</desc>
    <g id="Page-1" stroke="none" stroke-width="1" fill="none" fill-rule="evenodd">
        <g id="News_Article_SP" transform="translate(-55.000000, -289.000000)">
            <g id="Group-4" transform="translate(15.000000, 289.000000)">
                <g id="Icon/Sns/Twitter" transform="translate(40.000000, 0.000000)">
                    <rect id="Rectangle" fill="#FFFFFF" x="0" y="0" width="24" height="24" rx="2"></rect>
                    <path d="M22,0 C23.1045695,-2.02906125e-16 24,0.8954305 24,2 L24,22 C24,23.1045695 23.1045695,24 22,24 L2,24 C0.8954305,24 1.3527075e-16,23.1045695 0,22 L0,2 C-1.3527075e-16,0.8954305 0.8954305,2.02906125e-16 2,0 L22,0 Z M15.1735,5.25 C12.9879375,5.25 11.3819375,7.289125 11.8755625,9.4059375 C9.063,9.265 6.56875,7.9175 4.8988125,5.8694375 C4.0119375,7.390875 4.438875,9.3811875 5.945875,10.3890625 C5.39175,10.3711875 4.86925,10.21925 4.4134375,9.9655625 C4.3763125,11.53375 5.500375,13.000875 7.128375,13.3274375 C6.6519375,13.4566875 6.130125,13.4869375 5.599375,13.3851875 C6.02975,14.7299375 7.279625,15.70825 8.761875,15.73575 C7.33875,16.8515625 5.54575,17.35 3.75,17.13825 C5.2480625,18.0986875 7.028,18.659 8.93925,18.659 C15.224375,18.659 18.7753125,13.3508125 18.5608125,8.589875 C19.2221875,8.1120625 19.79625,7.516 20.25,6.8374375 C19.6429375,7.1069375 18.9905,7.2884375 18.30575,7.37025 C19.0049375,6.9515625 19.541875,6.288125 19.7941875,5.4975 C19.140375,5.88525 18.41575,6.167125 17.644375,6.3190625 C17.0276875,5.661125 16.147,5.25 15.1735,5.25 Z" id="Combined-Shape" fill="#1DA1F2"></path>
                </g>
            </g>
        </g>
    </g>
</svg>