<?xml version="1.0" encoding="UTF-8"?>
<svg width="32px" height="32px" viewBox="0 0 32 32" version="1.1" xmlns="http://www.w3.org/2000/svg" xmlns:xlink="http://www.w3.org/1999/xlink">
    <!-- Generator: Sketch 58 (84663) - https://sketch.com -->
    <title>Icon/Sns/Youtube</title>
    <desc>Created with Sketch.</desc>
    <g id="Icon/Sns/Youtube" stroke="none" stroke-width="1" fill="none" fill-rule="evenodd">
        <rect id="Rectangle" fill="#FFFFFF" x="0" y="0" width="32" height="32" rx="2"></rect>
        <path d="M30,0 C31.1045695,-2.02906125e-16 32,0.8954305 32,2 L32,30 C32,31.1045695 31.1045695,32 30,32 L2,32 C0.8954305,32 1.3527075e-16,31.1045695 0,30 L0,2 C-1.3527075e-16,0.8954305 0.8954305,2.02906125e-16 2,0 L30,0 Z M16.1519742,8.45076951 L15.8350045,8.45074948 C14.8090137,8.4540537 9.09612701,8.49040012 7.55750017,8.89021074 C6.65128288,9.14341629 5.90508329,9.88962409 5.65187518,10.8091694 C5.25464398,12.3378707 5.21620225,15.345255 5.21248208,15.9130127 L5.21248208,16.1006512 C5.21620225,16.6702846 5.25464398,19.6861954 5.65187518,21.1908357 C5.90508329,22.1103685 6.63795584,22.8432496 7.55750017,23.0964613 C9.1082425,23.5083925 14.8112166,23.5458408 15.8353049,23.5492452 L16.1519742,23.5492552 C17.1799735,23.545951 22.9039058,23.5096046 24.4425008,23.1097946 C25.3620517,22.8565882 26.0949093,22.1370309 26.334792,21.204169 C26.7441016,19.6874896 26.7837122,16.6812877 26.7875455,16.1136463 L26.7875603,15.8557494 C26.7833956,15.1424424 26.7410476,12.2832742 26.334792,10.8091694 C26.0949093,9.88962409 25.3620517,9.1567604 24.4425008,8.91687741 C22.9039058,8.49282436 17.1799735,8.45427408 16.1519742,8.45076951 Z M13.8477091,12.7683353 L19.4583343,16.0066692 L13.8477091,19.2316698 L13.8477091,12.7683353 Z" id="Combined-Shape" fill="#FF0000"></path>
    </g>
</svg>